<svg width="20px" height="17px" viewBox="0 0 20 17" version="1.1" xmlns="http://www.w3.org/2000/svg" xmlns:xlink="http://www.w3.org/1999/xlink">
    <g id="Designs" stroke="none" stroke-width="1" fill="none" fill-rule="evenodd">
        <g id="My-Trips---View-Details" transform="translate(-680.000000, -492.000000)" fill="#D8CA72" fill-rule="nonzero">
            <g id="crown-2" transform="translate(680.000000, 492.000000)">
                <path d="M17,16.1201629 C17,15.5010183 16.5346575,15 15.9596001,15 L4.04039995,15 C3.46534252,15 3,15.5010183 3,16.1201629 C3,16.7393075 4.42494258,17 5,17 L15,17 C15.5750574,17 17,16.7372709 17,16.1201629 Z" id="Path"></path>
                <path d="M1.33197556,7.22708758 C1.3503055,7.22708758 1.36659878,7.22708758 1.38492872,7.22505092 L3,14 L9.99898167,14 L17,14 L18.6130346,7.22505092 C18.6313442,7.22505092 18.6476375,7.22708758 18.6659878,7.22708758 C19.401222,7.22708758 19.9979633,6.63034623 19.9979633,5.89511202 C19.9979633,5.1598778 19.4012016,4.56313646 18.6659878,4.56313646 C17.9307739,4.56313646 17.3340122,5.1598778 17.3340122,5.89511202 C17.3340122,6.03767821 17.3564358,6.17617108 17.3991853,6.30448065 L14.1873727,8.18228106 L10.7352342,2.4592668 C11.0937067,2.2209776 11.3319959,1.81160896 11.3319959,1.34928717 C11.3319959,0.614052953 10.7352342,0.017311609 10.0000204,0.017311609 C9.26480652,0.017311609 8.66804481,0.614052953 8.66804481,1.34928717 C8.66804481,1.81364562 8.90431772,2.2209776 9.26480652,2.4592668 L5.81266802,8.18228106 L2.6008554,6.30448065 C2.64158859,6.17617108 2.66602851,6.03767821 2.66602851,5.89511202 C2.66602851,5.1598778 2.06928717,4.56313646 1.33405295,4.56313646 C0.596782077,4.56313646 4.07331976e-05,5.1598778 4.07331976e-05,5.89511202 C4.07331976e-05,6.63034623 0.596741344,7.22708758 1.33197556,7.22708758 Z" id="Path"></path>
            </g>
        </g>
    </g>
</svg>