<svg width="13" height="10" viewBox="0 0 13 10" fill="none" xmlns="http://www.w3.org/2000/svg">
    <g opacity="0.4">
        <path fill-rule="evenodd" clip-rule="evenodd" d="M11.7812 0H1.21875C0.545645 0 0 0.545645 0 1.21875V8.53125C0 9.20436 0.545645 9.75 1.21875 9.75H11.7812C12.4544 9.75 13 9.20436 13 8.53125V1.21875C13 0.545645 12.4544 0 11.7812 0ZM11.7812 1.21875V2.25481C11.2119 2.71842 10.3043 3.43931 8.364 4.95866C8.29213 5.0152 8.20841 5.08505 8.11605 5.16212C7.65894 5.54355 6.99031 6.10149 6.5 6.09365C6.00975 6.10157 5.34089 5.54343 4.88382 5.16202L4.88379 5.162C4.79148 5.08497 4.70781 5.01515 4.636 4.95866C2.69598 3.43954 1.78813 2.7185 1.21875 2.25481V1.21875H11.7812ZM1.21875 3.8187V8.53125H11.7812V3.81872C11.1994 4.28215 10.3741 4.93261 9.11658 5.91734C9.03442 5.98202 8.94428 6.057 8.84694 6.13797C8.26613 6.6211 7.42893 7.3175 6.5 7.31247C5.56705 7.31749 4.72062 6.6117 4.1481 6.1343C4.05174 6.05395 3.96314 5.98006 3.88319 5.91713C2.62562 4.93238 1.80055 4.2821 1.21875 3.8187Z" fill="black"/>
    </g>
</svg>
