<svg width="100" height="100" viewBox="0 0 100 100" fill="none" xmlns="http://www.w3.org/2000/svg">
    <path opacity="0.99428" fill-rule="evenodd" clip-rule="evenodd" d="M50 100C77.6142 100 100 77.6142 100 50C100 22.3858 77.6142 0 50 0C22.3858 0 0 22.3858 0 50C0 77.6142 22.3858 100 50 100Z" fill="url(#paint0_linear)"/>
    <path fill-rule="evenodd" clip-rule="evenodd" d="M65.0492 34.9833C63.7816 33.7156 61.7338 33.7156 60.4661 34.9833L50 45.4169L39.5339 34.9508C38.2662 33.6831 36.2184 33.6831 34.9508 34.9508C33.6831 36.2184 33.6831 38.2662 34.9508 39.5339L45.4169 50L34.9508 60.4661C33.6831 61.7338 33.6831 63.7816 34.9508 65.0492C36.2184 66.3169 38.2662 66.3169 39.5339 65.0492L50 54.5831L60.4661 65.0492C61.7338 66.3169 63.7816 66.3169 65.0492 65.0492C66.3169 63.7816 66.3169 61.7338 65.0492 60.4661L54.5831 50L65.0492 39.5339C66.2844 38.2987 66.2844 36.2184 65.0492 34.9833Z" fill="white"/>
    <defs>
        <linearGradient id="paint0_linear" x1="-50" y1="50" x2="50" y2="150" gradientUnits="userSpaceOnUse">
            <stop stop-color="#8F4255"/>
            <stop offset="1" stop-color="#F07795"/>
        </linearGradient>
    </defs>
</svg>
