<svg width="10px" height="13px" viewBox="0 0 10 13" version="1.1" xmlns="http://www.w3.org/2000/svg" xmlns:xlink="http://www.w3.org/1999/xlink">
    <g id="Designs" stroke="none" stroke-width="1" fill="none" fill-rule="evenodd">
        <g id="My-Trips" transform="translate(-942.000000, -335.000000)" fill-rule="nonzero" stroke="#979797">
            <g id="Pending-Trip" transform="translate(442.038130, 203.483400)">
                <g id="map-marker" transform="translate(499.961870, 131.516600)">
                    <path d="M4.78533893,12.4534706 C4.82870023,12.5156266 4.92171071,12.5155168 4.96442857,12.453809 C5.54957883,11.6055147 7.65149545,8.61061963 8.02297999,8.05420073 C8.68939602,7.05602604 8.9896483,6.48613506 9.13232201,5.94438705 C9.21480597,5.63118624 9.25,5.3054188 9.25,4.875 C9.25,2.45874589 7.29125411,0.5 4.875,0.5 C2.45874589,0.5 0.5,2.45874589 0.5,4.875 C0.5,5.3054188 0.535194027,5.63118624 0.617677988,5.94438705 C0.760351696,6.48613506 1.06060398,7.05602604 1.72702001,8.05420073 C2.09845523,8.61054575 4.19986304,11.6047195 4.78533827,12.453471 Z M4.78533827,12.453471 C4.78541602,12.4535837 4.78549374,12.4536964 4.78557143,12.453809 L4.7851044,12.4531331 C4.78518242,12.4532458 4.78526059,12.4533583 4.78533893,12.4534706 Z" id="Path"></path>
                </g>
            </g>
        </g>
    </g>
</svg>