
<svg width="14px" height="18px" viewBox="0 0 14 18" version="1.1" xmlns="http://www.w3.org/2000/svg" xmlns:xlink="http://www.w3.org/1999/xlink">
    <g id="Designs" stroke="none" stroke-width="1" fill="none" fill-rule="evenodd">
        <g id="My-Trips" transform="translate(-458.000000, -220.000000)" fill="#FFFFFF" fill-rule="nonzero">
            <g id="Pending-Trip" transform="translate(442.038130, 203.483400)">
                <g id="Pending" transform="translate(62.210253, 25.114313) rotate(-2.000000) translate(-62.210253, -25.114313) translate(1.710253, 2.614313)">
                    <g id="hourglass-2" transform="translate(15.011666, 13.372556)">
                        <path d="M8.94260027,6.46717422 C10.0034128,5.50001797 11.4379753,4.19198672 11.5687253,1.06708047 L12.5158815,1.06708047 L12.5158815,0.129580475 L0.328381521,0.129580475 L0.328381521,1.06708047 L1.27553777,1.06708047 C1.40628777,4.19198672 2.84085027,5.50001797 3.90166277,6.46717422 C4.61325652,7.11595547 5.01588152,7.51304922 5.01588152,8.12958047 C5.01588152,8.74611172 4.61325652,9.14320547 3.90166277,9.79198672 C2.84085027,10.759143 1.40628777,12.0671742 1.27553777,15.1920805 L0.328381521,15.1920805 L0.328381521,16.1295805 L12.5158815,16.1295805 L12.5158815,15.1920805 L11.5687253,15.1920805 C11.4379753,12.0671742 10.0034128,10.759143 8.94260027,9.79198672 C8.23100652,9.14320547 7.82838152,8.74611172 7.82838152,8.12958047 C7.82838152,7.51304922 8.23100652,7.11595547 8.94260027,6.46717422 Z M5.95338152,11.643268 C5.80860027,11.673143 5.66556902,11.7166117 5.52597527,11.7743617 L2.65481902,12.9624555 C3.12369402,11.770268 3.87888152,11.0814242 4.53328777,10.4847992 C5.26360027,9.81895547 5.95338152,9.19004922 5.95338152,8.12958047 L5.95338152,11.643268 Z M8.31097527,10.4847992 C8.96538152,11.0814242 9.72053777,11.770268 10.189444,12.9624242 L7.31828777,11.7743305 C7.17869402,11.7165805 7.03566277,11.6731117 6.89088152,11.6432367 L6.89088152,8.12958047 C6.89088152,9.19004922 7.58066277,9.81895547 8.31097527,10.4847992 Z M2.63835027,3.25458047 C2.41169402,2.66398672 2.25516277,1.95089297 2.21419402,1.06708047 L10.6300378,1.06708047 C10.589069,1.95089297 10.432569,2.66398672 10.2058815,3.25458047 L2.63835027,3.25458047 Z" id="Shape"></path>
                    </g>
                </g>
            </g>
        </g>
    </g>
</svg>