<svg width="15" height="15" viewBox="0 0 15 15" fill="none" xmlns="http://www.w3.org/2000/svg">
    <g opacity="0.4">
        <path d="M5.4225 6.11847C5.4733 6.18788 5.5376 6.27287 5.61725 6.37339C5.88995 6.71757 6.34231 7.24354 7.04846 7.94956C7.75479 8.65577 8.28089 9.10838 8.62515 9.38133C8.72567 9.46103 8.81065 9.52538 8.88007 9.57624C8.96611 9.52722 9.06618 9.4703 9.17051 9.41115C9.46471 9.24432 9.80457 9.05296 9.95149 8.97572C10.1335 8.87954 10.3334 8.81107 10.5338 8.78878C10.7296 8.76702 10.9662 8.78577 11.1776 8.91484L11.178 8.91506C11.4517 9.08251 13.6594 10.5513 13.8492 10.684L13.8495 10.6843C14.3241 11.0169 14.3564 11.7236 13.992 12.2436C13.8491 12.4481 13.4769 12.9172 13.0746 13.3364C12.8733 13.5461 12.6517 13.7569 12.4378 13.9181C12.331 13.9985 12.2148 14.0752 12.0951 14.1329C11.982 14.1874 11.825 14.245 11.6483 14.2395L11.6476 14.2395C11.354 14.23 10.6423 14.2061 9.49871 13.669C8.36875 13.1384 6.83371 12.1149 4.85884 10.1395C2.88435 8.1647 1.86112 6.62959 1.33052 5.49956C0.793575 4.35601 0.769541 3.64411 0.760151 3.35027L5.4225 6.11847ZM5.4225 6.11847C5.47155 6.03237 5.52851 5.93222 5.58771 5.8278C5.75446 5.53368 5.94584 5.19366 6.02304 5.04655C6.1184 4.86588 6.18796 4.66606 6.21092 4.46519C6.23329 4.26943 6.21549 4.02781 6.07939 3.81316C5.91953 3.56083 4.46711 1.35843 4.31101 1.14226L4.31084 1.14203C3.98283 0.688369 3.28424 0.636311 2.75617 1.0046L2.7557 1.00493C2.55154 1.14766 2.08214 1.52023 1.66269 1.92296C1.45299 2.12431 1.24219 2.34606 1.08112 2.56013C1.00067 2.66705 0.924009 2.78332 0.866399 2.90317C0.811949 3.01644 0.754502 3.17351 0.760151 3.35026L5.4225 6.11847ZM9.11051 9.73496L9.10986 9.73458L9.1101 9.73472L9.11051 9.73496Z" stroke="black"/>
    </g>
</svg>
