<svg width="30" height="43" viewBox="0 0 30 43" fill="none" xmlns="http://www.w3.org/2000/svg">
    <path d="M14.9999 0C8.69132 0.00774725 3.57904 5.11995 3.57129 11.4286V18.4615C3.57129 18.9471 3.96492 19.3407 4.45044 19.3407H7.96695C8.45247 19.3407 8.8461 18.9471 8.8461 18.4615V11.4286C8.84601 8.02986 11.6012 5.27473 14.9999 5.27473C18.3985 5.27473 21.1538 8.02986 21.1538 11.4286V18.4615C21.1538 18.9471 21.5474 19.3407 22.0329 19.3407H25.5493C26.0349 19.3407 26.4285 18.9471 26.4285 18.4615V11.4286C26.4207 5.11995 21.3085 0.00774725 14.9999 0Z" fill="#455A64"/>
    <path fill-rule="evenodd" clip-rule="evenodd" d="M0 15.3415C0 15.1529 0.152878 15 0.341463 15H29.6585C29.8471 15 30 15.1529 30 15.3415V28C30 36.2843 23.2843 43 15 43C6.71573 43 0 36.2843 0 28V15.3415Z" fill="#5DD9C4"/>
    <path d="M10 28.0625L13.3333 32L20 23" stroke="white" stroke-width="4" stroke-linecap="round" stroke-linejoin="round"/>
</svg>
