<svg width="110px" height="108px" viewBox="0 0 110 108" version="1.1" xmlns="http://www.w3.org/2000/svg" xmlns:xlink="http://www.w3.org/1999/xlink">
    <g id="Designs" stroke="none" stroke-width="1" fill="none" fill-rule="evenodd">
        <g id="Send-Tickets" transform="translate(-238.000000, -223.000000)" fill-rule="nonzero">
            <g id="tickets" transform="translate(238.000000, 223.000000)">
                <path d="M89.370918,6.63523437 L79.8887891,0.0706835938 C77.9906445,2.14886719 74.8025781,2.55707031 72.4242578,0.910507813 L24.9102734,69.5401953 C27.2885937,71.1867578 28.0287305,74.3144531 26.7516992,76.8225391 L36.2336133,83.3870898 C38.1317578,81.3089062 41.3198242,80.9007031 43.6981445,82.5472656 L43.6981445,82.5472656 C46.0764648,84.1938281 46.8166016,87.3215234 45.5395703,89.8296094 L55.0214844,96.3941602 C56.9196289,94.3159766 60.1076953,93.9077734 62.4860156,95.5543359 L62.4860156,95.5543359 L62.4860156,95.5543359 L110,26.9244336 L110,26.9244336 L110,26.9244336 C107.62168,25.2778711 106.881543,22.1501758 108.158574,19.6420898 L98.6766602,13.0775391 C96.7785156,15.1557227 93.5904492,15.5639258 91.2121289,13.9173633 L91.2121289,13.9173633 C88.8340234,12.2710156 88.0938867,9.14310547 89.370918,6.63523437 Z" id="Path" fill="#F2CC7B"></path>
                <polygon id="Rectangle" fill="#E15577" transform="translate(63.585003, 53.823856) rotate(124.694429) translate(-63.585003, -53.823856) " points="35.0920815 37.5003385 92.0779244 37.5003385 92.0779244 70.1473744 35.0920815 70.1473744"></polygon>
                <path d="M53.0141992,95.0049805 L70.99125,18.3949219 L65.3730859,17.0766406 L65.8504687,12.1152539 L64.8325391,11.8765625 L24.9102734,69.5401953 C27.2885937,71.1867578 28.0287305,74.3144531 26.7516992,76.8225391 L36.2338281,83.3870898 C38.1317578,81.3089062 41.3200391,80.9007031 43.6983594,82.5472656 L43.6983594,82.5472656 C46.0766797,84.1938281 46.8168164,87.3215234 45.5397852,89.8296094 L53.0141992,95.0049805 Z" id="Path" fill="#000000" opacity="0.1"></path>
                <path d="M36.9350781,11.6774023 L25.7075586,9.04277344 C24.7027344,11.6716016 21.8857031,13.2195508 19.0697461,12.5586914 L0,93.8237695 C2.81595703,94.4846289 4.65072266,97.1237695 4.38130859,99.9255469 L15.6088281,102.560176 C16.6136523,99.9313477 19.4306836,98.3833984 22.2466406,99.0442578 L22.2466406,99.0442578 C25.0625977,99.7051172 26.8973633,102.344258 26.6279492,105.146035 L37.8554687,107.780664 C38.860293,105.151836 41.6773242,103.603887 44.4932812,104.264746 L44.4932812,104.264746 L44.4932812,104.264746 L63.5625977,22.9998828 L63.5625977,22.9998828 L63.5625977,22.9998828 C60.7466406,22.3392383 58.911875,19.6998828 59.1812891,16.8981055 L47.9539844,14.2634766 C46.9491602,16.8923047 44.1321289,18.4402539 41.3161719,17.7793945 L41.3161719,17.7793945 C38.5,17.1181055 36.6656641,14.4791797 36.9350781,11.6774023 Z" id="Path" fill="#FFD782"></path>
                <g id="Group" transform="translate(7.734375, 22.343750)">
                    <path d="M14.1334945,5.34554687 C13.9995121,5.34554687 13.8630637,5.32786197 13.7268208,5.29131318 L10.274101,4.36155892 C9.32060625,4.10500994 8.72898739,3.0099608 8.95297647,1.91585485 C9.17655456,0.821984704 10.1308713,0.142884461 11.0843661,0.399905039 L14.5370859,1.32965929 C15.4905806,1.58620828 16.0821995,2.68125742 15.8582104,3.77536336 C15.666895,4.71266318 14.9380058,5.34554687 14.1334945,5.34554687 Z" id="Path" fill="#E15577"></path>
                    <path d="M40.7719666,10.65625 C40.6590361,10.65625 40.5442003,10.6444411 40.4291914,10.620036 L34.4191062,9.33790233 C33.615429,9.16659429 33.1167681,8.43538605 33.305563,7.70480762 C33.4940114,6.97438665 34.2978618,6.52092418 35.1020586,6.69254713 L41.1121438,7.97468078 C41.915821,8.14598882 42.4144819,8.87719706 42.225687,9.60777549 C42.064432,10.2338056 41.4502425,10.65625 40.7719666,10.65625 Z M27.7719666,7.65625 C27.6590361,7.65625 27.5442003,7.64444111 27.4291914,7.62003606 L21.4191062,6.33790506 C20.615429,6.16659737 20.1167681,5.43539065 20.305563,4.70481373 C20.4940114,3.97423682 21.298035,3.52093273 22.1020586,3.69255533 L28.1121438,4.97468632 C28.915821,5.14599402 29.4144819,5.87720074 29.225687,6.60777765 C29.0642588,7.23380649 28.4502425,7.65625 27.7719666,7.65625 Z" id="Shape" fill="#E15577"></path>
                    <path d="M51.1334945,13.3455469 C50.9995121,13.3455469 50.8630637,13.327862 50.7268208,13.2913132 L47.274101,12.3615589 C46.3206062,12.1050099 45.7289874,11.0099608 45.9529765,9.91585485 C46.1765546,8.8219847 47.1310768,8.14288446 48.0843661,8.39990504 L51.5370859,9.32965929 C52.4905806,9.58620828 53.0821995,10.6812574 52.8582104,11.7753634 C52.6666895,12.712899 51.9382112,13.3455469 51.1334945,13.3455469 Z" id="Path" fill="#E15577"></path>
                    <polygon id="Rectangle" fill="#EB6183" transform="translate(22.501861, 42.689636) rotate(103.209351) translate(-22.501861, -42.689636) " points="-5.9913251 26.3659683 50.9950472 26.3659683 50.9950472 59.013303 -5.9913251 59.013303"></polygon>
                </g>
                <g id="Group" transform="translate(65.593750, 8.023438)" fill="#E15577">
                    <path d="M4.75826502,5.9765625 C4.43490316,5.9765625 4.10848893,5.88481233 3.82270954,5.69318922 L1.11562712,3.87960025 C0.367983994,3.37875875 0.18159784,2.38630616 0.69916758,1.66301202 C1.21673732,0.93953328 2.24252887,0.759171266 2.98979046,1.26001276 L5.69687288,3.07360173 C6.44451601,3.57444323 6.63090216,4.56689583 6.11333242,5.29018996 C5.79359527,5.73694132 5.28022256,5.9765625 4.75826502,5.9765625 Z" id="Path"></path>
                    <path d="M27.7366262,21.9765625 C27.4090185,21.9765625 27.0783183,21.8837199 26.7887865,21.690391 L21.1249416,17.9080802 C20.3674815,17.4022931 20.1786481,16.4000404 20.7030137,15.6697905 C21.2273794,14.9391676 22.2664468,14.7570246 23.0237135,15.2628117 L28.6875584,19.0451225 C29.4450185,19.5509096 29.6338519,20.5531623 29.1094863,21.2834123 C28.7855508,21.7343887 28.2654373,21.9765625 27.7366262,21.9765625 Z M16.7366262,13.9765625 C16.4090185,13.9765625 16.0783183,13.8837199 15.7887865,13.690391 L10.1249416,9.90808024 C9.36748154,9.40229312 9.17864806,8.40004042 9.70301372,7.66979046 C10.2273794,6.93916763 11.26664,6.75702461 12.0237135,7.26281173 L17.6875584,11.0451225 C18.4450185,11.5509096 18.6338519,12.5531623 18.1094863,13.2835987 C17.7855508,13.7345751 17.2654373,13.9765625 16.7366262,13.9765625 Z" id="Shape"></path>
                    <path d="M36.758265,27.9765625 C36.4349032,27.9765625 36.1084889,27.8846277 35.8227095,27.6931892 L33.1156271,25.8796003 C32.367984,25.3787588 32.1815978,24.3863062 32.6991676,23.663012 C33.2167373,22.9395333 34.2425289,22.7591713 34.9897905,23.2600128 L37.6968729,25.0736017 C38.444516,25.5744432 38.6309022,26.5668958 38.1133324,27.29019 C37.793786,27.7367567 37.2802226,27.9765625 36.758265,27.9765625 Z" id="Path"></path>
                </g>
            </g>
        </g>
    </g>
</svg>